<svg width="802" height="302" viewBox="0 0 802 302" fill="none" xmlns="http://www.w3.org/2000/svg">
<path d="M2.30074e-05 246.591V191.762L119.176 3.97762H167.898V78.4094H139.631L69.8864 188.921V191.194H242.472V246.591H2.30074e-05ZM140.483 294.887V229.83L141.903 205.824V3.97762H207.67V294.887H140.483ZM399.645 301.989C374.266 301.989 352.391 295.976 334.02 283.949C315.649 271.828 301.492 254.451 291.548 231.819C281.605 209.091 276.681 181.771 276.776 149.858C276.87 117.945 281.842 90.8621 291.69 68.6083C301.634 46.2598 315.743 29.2617 334.02 17.614C352.391 5.87156 374.266 0.000344276 399.645 0.000344276C425.024 0.000344276 446.899 5.87156 465.27 17.614C483.736 29.2617 497.94 46.2598 507.884 68.6083C517.827 90.9568 522.751 118.04 522.656 149.858C522.656 181.866 517.685 209.233 507.741 231.961C497.798 254.688 483.641 272.065 465.27 284.091C446.993 296.023 425.118 301.989 399.645 301.989ZM399.645 244.461C414.796 244.461 427.06 236.743 436.435 221.307C445.81 205.777 450.45 181.961 450.355 149.858C450.355 128.836 448.224 111.506 443.963 97.8697C439.702 84.1386 433.783 73.9113 426.207 67.1878C418.632 60.4644 409.777 57.1026 399.645 57.1026C384.588 57.1026 372.42 64.7257 363.139 79.9719C353.859 95.1235 349.171 118.419 349.077 149.858C348.982 171.165 351.018 188.826 355.185 202.841C359.446 216.856 365.412 227.32 373.082 234.233C380.753 241.051 389.607 244.461 399.645 244.461ZM559.375 246.591V191.762L678.551 3.97762H727.273V78.4094H699.006L629.261 188.921V191.194H801.847V246.591H559.375ZM699.858 294.887V229.83L701.278 205.824V3.97762H767.045V294.887H699.858Z" fill="#F7F7F7"/>
</svg>
