<svg width="16" height="16" viewBox="0 0 16 16" fill="none" xmlns="http://www.w3.org/2000/svg">
<rect width="16" height="16" fill="white"/>
<path d="M9.73019 4.5302C10.0333 4.22505 11.7426 2.43091 12.0661 2.19882C12.3069 2.02586 12.4725 1.88472 12.7437 2.13744C12.8184 2.20702 12.7437 3.81826 12.7158 4.66538C12.7053 4.98271 12.5771 5.28463 12.3562 5.51275C10.4419 7.48879 8.52341 9.44767 6.55411 11.3718C6.17459 11.6628 5.82621 11.5477 5.49276 11.2649C4.66375 10.5617 3.88928 9.59702 3.09862 8.8401C2.95768 8.62441 2.97486 8.30559 3.10535 8.08468C3.18802 7.94477 3.96424 7.1891 4.10494 7.11977C4.40078 6.97415 4.61295 6.999 4.86372 7.20153C5.03107 7.33671 5.93254 8.33268 6.01173 8.31876C7.26533 7.07007 8.48331 5.78485 9.72994 4.5302H9.73019Z" fill="#2857C4"/>
<path d="M12.2927 7.07104C12.4976 7.02904 12.6821 7.22759 12.715 7.42862C12.6928 10.2269 12.9065 9.9419 12.0857 10.833C11.1576 11.8402 10.1129 12.7643 9.18057 13.7774C8.88622 14.0175 8.68651 14.0734 8.32641 13.8957C8.10852 13.7881 7.35571 13.0404 7.21651 12.8262C7.08626 12.6257 7.0138 12.3941 7.14329 12.1744C8.72187 10.5167 10.3771 8.92009 11.9774 7.27803C12.0698 7.21516 12.1816 7.0939 12.2927 7.07129V7.07104Z" fill="#38BDB1"/>
</svg>
