<svg xmlns="http://www.w3.org/2000/svg" xmlns:xlink="http://www.w3.org/1999/xlink" width="1080" zoomAndPan="magnify" viewBox="0 0 810 809.999993" height="1080" preserveAspectRatio="xMidYMid meet" version="1.0"><defs><clipPath id="6263959fa3"><path d="M 0 0 L 810 0 L 810 810 L 0 810 Z M 0 0 " clip-rule="nonzero"></path></clipPath><clipPath id="53d05a0f86"><rect x="0" width="810" y="0" height="810"></rect></clipPath><clipPath id="623d4074d1"><path d="M 142.402344 82.769531 L 667.46875 82.769531 L 667.46875 595.332031 L 142.402344 595.332031 Z M 142.402344 82.769531 " clip-rule="nonzero"></path></clipPath><clipPath id="5d5d27e72d"><path d="M 503.953125 218.832031 C 520.222656 202.449219 611.992188 106.125 629.359375 93.664062 C 642.289062 84.378906 651.179688 76.800781 665.738281 90.371094 C 669.75 94.105469 665.738281 180.609375 664.242188 226.089844 C 663.679688 243.125 656.792969 259.335938 644.933594 271.582031 C 542.164062 377.671875 439.164062 482.839844 333.433594 586.140625 C 313.058594 601.761719 294.355469 595.585938 276.453125 580.402344 C 231.945312 542.648438 190.367188 490.859375 147.917969 450.21875 C 140.351562 438.640625 141.273438 421.523438 148.277344 409.664062 C 152.71875 402.152344 194.390625 361.582031 201.945312 357.859375 C 217.828125 350.042969 229.21875 351.375 242.679688 362.25 C 251.664062 369.507812 300.0625 422.976562 304.316406 422.230469 C 371.617188 355.191406 437.011719 286.191406 503.9375 218.832031 Z M 503.953125 218.832031 " clip-rule="nonzero"></path></clipPath><clipPath id="a55327ce61"><path d="M 0.558594 0.800781 L 525.46875 0.800781 L 525.46875 513.332031 L 0.558594 513.332031 Z M 0.558594 0.800781 " clip-rule="nonzero"></path></clipPath><clipPath id="d960c2f987"><path d="M 361.953125 136.832031 C 378.222656 120.449219 469.992188 24.125 487.359375 11.664062 C 500.289062 2.378906 509.179688 -5.199219 523.738281 8.371094 C 527.75 12.105469 523.738281 98.609375 522.242188 144.089844 C 521.679688 161.125 514.792969 177.335938 502.933594 189.582031 C 400.164062 295.671875 297.164062 400.839844 191.433594 504.140625 C 171.058594 519.761719 152.355469 513.585938 134.453125 498.402344 C 89.945312 460.648438 48.367188 408.859375 5.917969 368.21875 C -1.648438 356.640625 -0.726562 339.523438 6.277344 327.664062 C 10.71875 320.152344 52.390625 279.582031 59.945312 275.859375 C 75.828125 268.042969 87.21875 269.375 100.679688 280.25 C 109.664062 287.507812 158.0625 340.976562 162.316406 340.230469 C 229.617188 273.191406 295.011719 204.191406 361.9375 136.832031 Z M 361.953125 136.832031 " clip-rule="nonzero"></path></clipPath><clipPath id="d792baeb3b"><rect x="0" width="526" y="0" height="514"></rect></clipPath><clipPath id="a41f709a6a"><path d="M 361.25 354.640625 L 664.898438 354.640625 L 664.898438 727.179688 L 361.25 727.179688 Z M 361.25 354.640625 " clip-rule="nonzero"></path></clipPath><clipPath id="d225dd6512"><path d="M 641.59375 355.164062 C 652.597656 352.910156 662.503906 363.570312 664.269531 374.363281 C 663.082031 524.601562 674.550781 509.300781 630.484375 557.144531 C 580.652344 611.21875 524.566406 660.835938 474.507812 715.230469 C 458.703125 728.117188 447.980469 731.121094 428.648438 721.582031 C 416.949219 715.804688 376.53125 675.660156 369.054688 664.15625 C 362.0625 653.390625 358.171875 640.957031 365.125 629.164062 C 449.878906 540.160156 538.75 454.4375 624.667969 366.277344 C 629.628906 362.902344 635.632812 356.390625 641.59375 355.175781 Z M 641.59375 355.164062 " clip-rule="nonzero"></path></clipPath><clipPath id="35b9a31965"><path d="M 0.441406 0.71875 L 303.898438 0.71875 L 303.898438 373.179688 L 0.441406 373.179688 Z M 0.441406 0.71875 " clip-rule="nonzero"></path></clipPath><clipPath id="bccee84853"><path d="M 280.59375 1.164062 C 291.597656 -1.089844 301.503906 9.570312 303.269531 20.363281 C 302.082031 170.601562 313.550781 155.300781 269.484375 203.144531 C 219.652344 257.21875 163.566406 306.835938 113.507812 361.230469 C 97.703125 374.117188 86.980469 377.121094 67.648438 367.582031 C 55.949219 361.804688 15.53125 321.660156 8.054688 310.15625 C 1.0625 299.390625 -2.828125 286.957031 4.125 275.164062 C 88.878906 186.160156 177.75 100.4375 263.667969 12.277344 C 268.628906 8.902344 274.632812 2.390625 280.59375 1.175781 Z M 280.59375 1.164062 " clip-rule="nonzero"></path></clipPath><clipPath id="b39e89b1e6"><rect x="0" width="304" y="0" height="374"></rect></clipPath></defs><g transform="matrix(1, 0, 0, 1, 0, 0.000000000000039746)"><g clip-path="url(#53d05a0f86)"><g clip-path="url(#6263959fa3)"></g></g></g><g clip-path="url(#623d4074d1)"><g clip-path="url(#5d5d27e72d)"><g transform="matrix(1, 0, 0, 1, 142, 82)"><g clip-path="url(#d792baeb3b)"><g clip-path="url(#a55327ce61)"><g clip-path="url(#d960c2f987)"><path fill="#2857c4" d="M 0.621094 0.992188 L 525.46875 0.992188 L 525.46875 513.332031 L 0.621094 513.332031 Z M 0.621094 0.992188 " fill-opacity="1" fill-rule="nonzero"></path></g></g></g></g></g></g><g clip-path="url(#a41f709a6a)"><g clip-path="url(#d225dd6512)"><g transform="matrix(1, 0, 0, 1, 361, 354)"><g clip-path="url(#b39e89b1e6)"><g clip-path="url(#35b9a31965)"><g clip-path="url(#bccee84853)"><path fill="#38bdb1" d="M 0.46875 0.859375 L 303.675781 0.859375 L 303.675781 373.179688 L 0.46875 373.179688 Z M 0.46875 0.859375 " fill-opacity="1" fill-rule="nonzero"></path></g></g></g></g></g></g></svg>